Coordinates
version=1
nRows=11
nColumns=33
inDegrees=yes

Units are S.I. units (second, meters, Newtons, ...)
Angles are in degrees.

endheader
time	ground_thorax_rot_x	ground_thorax_rot_y	ground_thorax_rot_z	ground_thorax_tx	ground_thorax_ty	ground_thorax_tz	clav_prot_r	clav_elev_r	scapula_abduction_r	scapula_elevation_r	scapula_upward_rot_r	scapula_winging_r	shoulder_elv_r	plane_of_elev_r	axial_rot_r	elbow_flexion_r	pro_sup_r	wrist_flex_r	wrist_dev_r	clav_prot_l	clav_elev_l	scapula_abduction_l	scapula_elevation_l	scapula_upward_rot_l	scapula_winging_l	shoulder_elv_l	plane_of_elev_l	axial_rot_l	elbow_flexion_l	pro_sup_l	wrist_flex_l	wrist_dev_l	
3.0200	38.067000	-5.443421	1.053470	-1.171734	810.944754	4.226165	12.218020	40.929012	45.000000	39.352571	-9.432409	-2962.737326	-2638.737010	149.452473	-120.900016	2530.641865	10.450426	17.722006	11.574568	4.659163	-45.000000	-45.000000	45.000000	-15.676140	1884.347653	-2258.835374	136.745525	-180.000000	5.410668	26.593384	14.515911	-19.514117	
3.0300	38.056623	-5.293589	1.393171	0.633589	809.175254	4.433687	12.239067	40.579584	44.999999	39.009314	-9.734497	-2962.640926	-2638.869730	149.461285	-120.338570	2530.414486	10.190619	17.510206	11.634609	4.819015	-45.000000	-44.999999	45.000000	-16.076377	1884.179704	-2258.834160	136.695337	-180.000000	5.222780	26.734197	14.489176	-19.469695	
3.0400	38.063075	-5.154026	1.733933	2.325059	807.488279	4.624353	12.250524	40.248274	44.999999	38.684762	-10.043979	-2962.560133	-2639.013015	149.455168	-119.764507	2530.192760	9.924127	17.313722	11.681891	4.993930	-45.000000	-44.999999	45.000000	-16.488297	1884.043602	-2258.832700	136.636582	-180.000000	5.038729	26.882617	14.457893	-19.432534	
3.0500	38.077012	-5.107781	1.985058	3.788211	805.977530	4.784134	12.246398	39.957552	44.999998	38.379430	-10.173390	-2962.457157	-2639.101240	149.533263	-119.178958	2530.011897	9.621188	17.146587	11.757851	5.054412	-45.000000	-44.999998	45.000000	-16.702500	1883.876977	-2258.854950	136.659332	-180.000000	4.886702	27.046397	14.403770	-19.400396	
3.0600	38.109810	-5.127706	2.171524	4.990810	804.647548	4.902560	12.228367	39.719414	44.999997	38.109350	-10.204917	-2962.366784	-2639.171357	149.638112	-118.604389	2529.850353	9.298997	17.007095	11.836940	5.059248	-45.000000	-44.999996	45.000000	-16.807858	1883.722208	-2258.886217	136.704372	-180.000000	4.757517	27.222334	14.334345	-19.377591	
3.0700	38.156367	-5.203966	2.307485	5.886174	803.511325	4.966686	12.197198	39.534270	44.999994	37.874427	-10.161399	-2962.288410	-2639.223183	149.770136	-118.056024	2529.710382	8.969082	16.898452	11.923530	5.016147	-45.000000	-44.999993	45.000000	-16.813099	1883.590782	-2258.919681	136.773879	-180.000000	4.649322	27.404457	14.242283	-19.365388	
3.0800	38.222000	-5.322562	2.400251	6.452264	802.554138	4.965088	12.158701	39.406618	44.999990	37.687754	-10.094062	-2962.252454	-2639.286373	149.884481	-117.564295	2529.571298	8.649803	16.812817	11.995714	4.957644	-45.000000	-44.999988	45.000000	-16.772372	1883.507841	-2258.943333	136.819618	-180.000000	4.553639	27.585698	14.140622	-19.363322	
3.0900	38.294515	-5.448525	2.494696	6.680055	801.748627	4.888747	12.118404	39.313773	44.999981	37.535296	-10.058473	-2962.240021	-2639.344810	149.994513	-117.137217	2529.442701	8.364849	16.750234	12.068304	4.902077	-45.000000	-44.999978	45.000000	-16.721166	1883.476791	-2258.953211	136.863426	-180.000000	4.464560	27.750750	14.017998	-19.369605	
3.1000	38.385885	-5.588635	2.571074	6.564756	801.066901	4.731913	12.082696	39.266627	44.999967	37.433726	-10.063573	-2962.272456	-2639.414455	150.064759	-116.796432	2529.305015	8.127322	16.700338	12.120093	4.856967	-45.000000	-44.999961	45.000000	-16.676228	1883.500657	-2258.954927	136.870548	-180.000000	4.376858	27.891536	13.897720	-19.380548	
3.1100	38.481093	-5.719720	2.664321	6.104656	800.483666	4.493102	12.059057	39.226066	44.999940	37.356833	-10.125960	-2962.326952	-2639.465141	150.124566	-116.526998	2529.176524	7.953743	16.663700	12.170856	4.817464	-45.000000	-44.999931	45.000000	-16.638086	1883.573006	-2258.955751	136.883018	-180.000000	4.285137	27.991986	13.762713	-19.390278	
3.1200	38.584249	-5.846106	2.760672	5.301750	799.976586	4.175399	12.047362	39.209720	44.999893	37.315192	-10.270056	-2962.420775	-2639.514778	150.137270	-116.323895	2529.045912	7.856287	16.636230	12.195668	4.793571	-45.000000	-44.999876	45.000000	-16.625478	1883.699634	-2258.952155	136.875204	-180.000000	4.195499	28.042908	13.639740	-19.397632	
